# xmcd
#
# Track frame offsets:
#	150
#	14100
#	31350
#	49575
#	68325
#	88725
#	107475
#	124800
#	145050
#	165000
#
# Disc length: 2432 seconds
#
# Revision: 0
# Processed by: cddbd v1.5.1PL0 Copyright (c) Steve Scherf et al.
# Submitted via: audiograbber 1.83.01
#
DISCID=76097e0a
DTITLE=Διάφοροι - Το ρεμπέτικο τραγούδι Νο 5
DYEAR=1900
DGENRE=
TTITLE0=Δερβισάκι
TTITLE1=Τι σε μέλλει εσένανε
TTITLE2=Στρίβε λόγια
TTITLE3=Κατινάκι
TTITLE4=Φονιάς θα γίνω
TTITLE5=Τούτοι οι μπάτσοι πούρθαν τώρα
TTITLE6=Η Ελλη
TTITLE7=Τουρνενέ
TTITLE8=Το κουτσαβάκι
TTITLE9=Καροτσιέρης
EXTD=
EXTT0=
EXTT1=
EXTT2=
EXTT3=
EXTT4=
EXTT5=
EXTT6=
EXTT7=
EXTT8=
EXTT9=
PLAYORDER=
